<svg width="16" height="22" viewBox="0 0 16 22" fill="none" xmlns="http://www.w3.org/2000/svg">
<path d="M13.2705 10.9226C13.1383 10.8169 12.9798 10.7288 12.8388 10.6319C12.7419 10.5174 12.6186 10.4381 12.4688 10.3852C11.5263 9.84788 10.4604 9.53076 9.40337 9.53076C9.18315 9.53076 8.98054 9.61885 8.82198 9.7686L7.7473 10.8521L6.66381 9.77741C6.51406 9.61885 6.30265 9.53957 6.08243 9.53957C5.01656 9.53957 3.93307 9.8655 2.99052 10.4116C2.85839 10.4557 2.75268 10.535 2.66459 10.6319C2.51484 10.7288 2.35628 10.8169 2.21534 10.9226C1.11424 11.7858 0.268585 13.0455 0.268585 14.5166V17.0095C0.268585 19.7578 2.50603 21.9865 5.2544 21.9865H10.2402C12.9886 21.9865 15.226 19.7578 15.226 17.0095V14.5166C15.2172 13.0455 14.3716 11.7858 13.2705 10.9226ZM9.66763 11.2837C10.1081 11.319 10.5749 11.407 11.0242 11.5744L10.0728 13.1688L8.92769 12.0237L9.66763 11.2837ZM6.57573 12.0237L5.43057 13.1688L4.47922 11.5744C4.92847 11.4159 5.39534 11.319 5.83578 11.2837L6.57573 12.0237ZM13.5611 17.0095C13.5611 18.8593 12.0901 20.3216 10.2402 20.3216H5.2544C3.39573 20.3216 1.93346 18.8593 1.93346 17.0095V14.5166C1.93346 13.759 2.36509 13.0279 3.05218 12.4201L4.54969 14.9394C4.82276 15.4063 5.46581 15.4855 5.8534 15.1068L7.7473 13.1952L9.65001 15.098C10.0376 15.4767 10.6718 15.3975 10.9537 14.9306L12.4512 12.4113C13.1383 13.0191 13.57 13.7502 13.57 14.5078V17.0095H13.5611Z" fill="#4E4E4E"/>
<path d="M7.74768 7.87469C9.80014 7.87469 11.4914 6.1922 11.4914 4.13974C11.4914 2.08728 9.80895 0.404785 7.74768 0.404785C5.69522 0.404785 4.01273 2.08728 4.01273 4.13974C4.01273 6.1922 5.68641 7.87469 7.74768 7.87469ZM7.74768 2.06085C8.90164 2.06085 9.82657 2.98578 9.82657 4.13974C9.82657 5.2937 8.90164 6.21863 7.74768 6.21863C6.59372 6.21863 5.6776 5.2937 5.6776 4.13974C5.6776 2.98578 6.58491 2.06085 7.74768 2.06085Z" fill="#4E4E4E"/>
<path d="M11.0677 16.1726H10.2397C9.12978 16.1726 9.12978 17.8375 10.2397 17.8375H11.0677C12.1688 17.8375 12.1688 16.1726 11.0677 16.1726Z" fill="#4E4E4E"/>
</svg>
