<svg width="42" height="42" viewBox="0 0 42 42" fill="none" xmlns="http://www.w3.org/2000/svg">
<path d="M4.74173 8.9901L9.87924 4.25613C10.0606 4.08794 10.2736 3.95752 10.5057 3.87243C10.7378 3.78733 10.9845 3.74927 11.2315 3.76044C11.4784 3.77161 11.7207 3.83179 11.9442 3.93749C12.1677 4.0432 12.3681 4.19232 12.5336 4.37619L16.0785 8.30401C15.9072 8.52699 15.3764 9.04155 14.6914 9.89915L12.585 12.6606C12.5295 12.7285 12.4835 12.8035 12.448 12.8836C11.8632 13.9162 11.4989 15.0592 11.378 16.2402C11.2571 17.4212 11.3824 18.6145 11.7459 19.7444C12.5792 22.0264 13.9001 24.0986 15.6161 25.8163C17.196 27.6722 19.199 29.1195 21.4558 30.0357C22.5191 30.457 23.6676 30.6177 24.8055 30.5043C25.9435 30.3909 27.0379 30.0068 27.9975 29.3839L30.9088 27.48C31.8164 26.8797 32.3815 26.3823 32.6213 26.2279L36.1661 30.0871C36.3373 30.2666 36.4707 30.4787 36.5584 30.7107C36.6461 30.9428 36.6864 31.1902 36.6768 31.4382C36.6672 31.6862 36.6079 31.9297 36.5026 32.1543C36.3972 32.3789 36.2479 32.58 36.0634 32.7457L30.9259 37.4968C29.4703 38.8175 26.4734 38.9547 23.1683 37.9599C20.0469 37.0305 17.1931 35.3661 14.8455 33.1059L7.75573 25.4732C5.70434 22.9388 4.28387 19.9523 3.61148 16.76C2.90935 13.381 3.2861 10.3966 4.74173 8.9901ZM2.54973 6.69172C-0.258779 9.26453 -0.378653 13.5525 0.443348 17.4289C1.19356 21.2213 2.89029 24.7618 5.37535 27.7201L12.4137 35.4043C15.1315 38.126 18.4968 40.1094 22.1921 41.1673C26.0281 42.3337 30.2409 42.5567 33.0494 39.9667L38.1869 35.2327C39.1807 34.3107 39.7707 33.0328 39.8284 31.6772C39.8861 30.3216 39.4069 28.998 38.4951 27.9946L35.0188 24.1354C34.5744 23.5979 33.977 23.209 33.3063 23.0205C32.6432 22.8915 31.9561 22.9881 31.354 23.2949C30.5856 23.7451 29.8579 24.2616 29.1791 24.8386L26.285 26.7596C25.7545 27.1209 25.1392 27.3377 24.4997 27.3888C23.8602 27.4399 23.2184 27.3236 22.6374 27.0512C20.8656 26.2745 19.2955 25.1009 18.0479 23.6208C16.668 22.2298 15.5946 20.5645 14.8969 18.7325C14.6384 18.0271 14.5411 17.2726 14.6123 16.5246C14.6834 15.7765 14.9211 15.054 15.3079 14.4101L17.3457 11.8545C17.9723 11.2169 18.5451 10.5285 19.0582 9.79624C19.4112 9.22179 19.562 8.54548 19.4864 7.87521C19.3665 7.17298 19.0313 6.52555 18.5274 6.02279L14.914 2.24934C13.9934 1.25398 12.7175 0.663086 11.3641 0.605265C10.0106 0.547444 8.68913 1.02737 7.68723 1.9406L2.54973 6.69172Z" fill="#35E13C"/>
<path d="M5.08427 4.30749C4.80027 4.62266 4.64307 5.03213 4.64307 5.45668C4.64307 5.88123 4.80027 6.2907 5.08427 6.60587L12.174 14.3414C12.478 14.6379 12.881 14.8108 13.3049 14.8266C13.7289 14.8425 14.1436 14.7001 14.4688 14.4272C14.6254 14.2843 14.7523 14.1119 14.8422 13.9199C14.9321 13.7278 14.9833 13.5199 14.9929 13.308C15.0024 13.096 14.9701 12.8843 14.8978 12.6849C14.8255 12.4855 14.7146 12.3024 14.5715 12.146L7.39615 4.41041C7.25308 4.24844 7.07895 4.11696 6.8841 4.02379C6.68926 3.93061 6.4777 3.87765 6.262 3.86805C6.0463 3.85844 5.83087 3.8924 5.62855 3.9679C5.42622 4.04339 5.24112 4.15888 5.08427 4.30749Z" fill="#35E13C"/>
<path d="M26.371 27.48C26.087 27.7952 25.9298 28.2046 25.9298 28.6292C25.9298 29.0537 26.087 29.4632 26.371 29.7784L33.4779 37.5139C33.7685 37.8301 34.1727 38.0176 34.6015 38.0353C35.0302 38.053 35.4484 37.8994 35.7641 37.6083C36.0797 37.3171 36.267 36.9123 36.2846 36.4829C36.3023 36.0535 36.1489 35.6346 35.8583 35.3185L28.6829 27.5829C28.5398 27.4209 28.3657 27.2894 28.1708 27.1963C27.976 27.1031 27.7644 27.0501 27.5487 27.0405C27.333 27.0309 27.1176 27.0649 26.9153 27.1404C26.7129 27.2159 26.5278 27.3314 26.371 27.48Z" fill="#35E13C"/>
<path d="M27.2247 7.27482C26.989 7.49315 26.8238 7.77712 26.7504 8.09021C26.6771 8.4033 26.6989 8.73122 26.813 9.03181C26.9272 9.3324 27.1285 9.59193 27.391 9.77704C27.6536 9.96215 27.9655 10.0644 28.2865 10.0706C29.2981 10.1195 30.2493 10.5672 30.9327 11.3159C31.616 12.0646 31.976 13.0535 31.9341 14.067C31.9263 14.2788 31.9601 14.49 32.0337 14.6886C32.1073 14.8872 32.2193 15.0694 32.3632 15.2247C32.5071 15.38 32.6802 15.5053 32.8725 15.5937C33.0648 15.682 33.2725 15.7315 33.4839 15.7394C33.6953 15.7472 33.9062 15.7133 34.1045 15.6396C34.3028 15.5659 34.4847 15.4537 34.6398 15.3096C34.7948 15.1654 34.92 14.9921 35.0082 14.7995C35.0963 14.6069 35.1458 14.3988 35.1536 14.1871C35.2121 13.2406 35.0783 12.2921 34.7604 11.3988C34.4425 10.5055 33.9471 9.68611 33.3041 8.99002C32.0332 7.61846 30.273 6.80481 28.4064 6.72595C27.9557 6.74588 27.5311 6.94312 27.2247 7.27482Z" fill="#35E13C"/>
<path d="M27.3981 0.534099C27.191 0.763659 27.0543 1.04804 27.0042 1.35332C26.954 1.65859 26.9927 1.97186 27.1154 2.25575C27.2382 2.53964 27.4399 2.78216 27.6965 2.95437C27.9531 3.12658 28.2538 3.22121 28.5626 3.22697C29.9566 3.28428 31.3255 3.61663 32.591 4.20496C33.8564 4.79329 34.9935 5.62603 35.937 6.65543C36.8804 7.68482 37.6117 8.89062 38.0889 10.2037C38.5661 11.5167 38.7798 12.9112 38.7178 14.3072C38.6938 14.7511 38.8429 15.1871 39.1336 15.523C39.4244 15.859 39.834 16.0688 40.2761 16.1082C40.7303 16.1082 41.1659 15.9275 41.4871 15.6058C41.8082 15.2841 41.9886 14.8479 41.9886 14.393C42.0643 12.5716 41.7795 10.7532 41.1507 9.04245C40.5219 7.33172 39.5615 5.76244 38.3248 4.42493C37.0881 3.08743 35.5995 2.00811 33.9447 1.24911C32.2898 0.490105 30.5015 0.0664006 28.6825 0.002385C28.4423 -0.0107117 28.2023 0.0302517 27.9801 0.122265C27.7578 0.214279 27.5589 0.355004 27.3981 0.534099Z" fill="#35E13C"/>
<path d="M24.3983 15.0276C24.242 15.1717 24.1156 15.3453 24.0263 15.5384C23.937 15.7315 23.8865 15.9403 23.8777 16.1529C23.869 16.3656 23.9022 16.5778 23.9753 16.7776C24.0485 16.9774 24.1602 17.1608 24.3041 17.3174C24.4481 17.4739 24.6214 17.6005 24.8142 17.69C25.0069 17.7795 25.2154 17.83 25.4277 17.8388C25.64 17.8475 25.852 17.8143 26.0514 17.7411C26.2509 17.6678 26.434 17.5559 26.5903 17.4117L27.8747 16.2282C28.1904 15.9371 28.3776 15.5323 28.3953 15.1029C28.4129 14.6734 28.2596 14.2546 27.9689 13.9384C27.6782 13.6223 27.274 13.4347 26.8453 13.417C26.4166 13.3993 25.9984 13.553 25.6827 13.8441L24.3983 15.0276Z" fill="#35E13C"/>
</svg>
